# xmcd
#
# Track frame offsets: 
#        183
#        19365
#        38238
#        57673
#        87108
#        107140
#        129018
#        146208
#        158118
#
# Disc length: 2334 seconds
#
# Revision: 3
# Processed by: cddbd v1.5.2PL0 Copyright (c) Steve Scherf et al.
# Submitted via: ExactAudioCopy v0.99pb3
#
DISCID=78091c09
DTITLE=Al Jarreau - Jarreau
DYEAR=1983
DGENRE=Jazz
TTITLE0=Mornin'
TTITLE1=Boogie Down
TTITLE2=I will be here for you
TTITLE3=Save me
TTITLE4=Step by step
TTITLE5=Black and Blues
TTITLE6=Trouble in paradise
TTITLE7=Not like this
TTITLE8=Love is waiting
EXTD=
EXTT0=
EXTT1=
EXTT2=
EXTT3=
EXTT4=
EXTT5=
EXTT6=
EXTT7=
EXTT8=
PLAYORDER=
